<?xml version="1.0" encoding="UTF-8" standalone="no"?>
<svg
   xmlns:dc="http://purl.org/dc/elements/1.1/"
   xmlns:cc="http://creativecommons.org/ns#"
   xmlns:rdf="http://www.w3.org/1999/02/22-rdf-syntax-ns#"
   xmlns:svg="http://www.w3.org/2000/svg"
   xmlns="http://www.w3.org/2000/svg"
   xmlns:sodipodi="http://sodipodi.sourceforge.net/DTD/sodipodi-0.dtd"
   xmlns:inkscape="http://www.inkscape.org/namespaces/inkscape"
   class="icon__svg"
   width="32"
   height="32"
   version="1.1"
   id="svg4"
   sodipodi:docname="logo.svg"
   inkscape:version="0.92.4 (5da689c313, 2019-01-14)">
  <metadata
     id="metadata10">
    <rdf:RDF>
      <cc:Work
         rdf:about="">
        <dc:format>image/svg+xml</dc:format>
        <dc:type
           rdf:resource="http://purl.org/dc/dcmitype/StillImage" />
      </cc:Work>
    </rdf:RDF>
  </metadata>
  <defs
     id="defs8" />
  <sodipodi:namedview
     pagecolor="#ffffff"
     bordercolor="#666666"
     borderopacity="1"
     objecttolerance="10"
     gridtolerance="10"
     guidetolerance="10"
     inkscape:pageopacity="0"
     inkscape:pageshadow="2"
     inkscape:window-width="2877"
     inkscape:window-height="1595"
     id="namedview6"
     showgrid="false"
     inkscape:zoom="7.375"
     inkscape:cx="-61.830508"
     inkscape:cy="16"
     inkscape:window-x="349"
     inkscape:window-y="67"
     inkscape:window-maximized="0"
     inkscape:current-layer="svg4" />
  <path
     d="m 16.846512,29.948423 a 5,5 0 0 1 -4.11,-1.18 c -1.08,-0.9 -1.73,-2.16 -2.45,-3.34 l -9.0600003,-15.01 c -0.52999998,-0.9 -1.01999998,-1.86 -1.15999998,-2.91 a 4.93,4.93 0 0 1 1.19999998,-4.11 5.31,5.31 0 0 1 2.93,-1.56 c 0.8,-0.17 1.63,-0.13 2.44,-0.13 l 19.8300003,0 a 5.86,5.86 0 0 1 4.2,1.59 4.62,4.62 0 0 1 1.33,3 c 0.08,1.3 -0.3,2.61 -0.98,3.73 a 6698.5,6698.5 0 0 1 -10.26,17 5.97,5.97 0 0 1 -3.9,2.92 z m -0.2,-8.1 c 0.45,-0.2 0.76,-0.6 1,-1 l 6.12,-10.4 c 0.27,-0.43 0.54,-0.9 0.53,-1.42 0.02,-0.43 -0.23,-0.83 -0.58,-1.04 -0.41,-0.26 -0.9,-0.29 -1.38,-0.3 l -13.2100003,0.01 c -0.64,-0.01 -1.41,0.16 -1.7,0.8 -0.27,0.66 0.1,1.33 0.46,1.87 l 6.8000003,10.67 c 0.39,0.64 1.2,1.15 1.96,0.8 z"
     id="path2"
     inkscape:connector-curvature="0"
     style="fill:#41b883;fill-opacity:1"
     inkscape:export-xdpi="599.8576"
     inkscape:export-ydpi="599.8576" />
</svg>
